<svg id="what_icn" xmlns="http://www.w3.org/2000/svg" width="75.222" height="75.235" viewBox="0 0 75.222 75.235">
  <path id="Path_28" data-name="Path 28" d="M70,47.548l-1.024-.322c.307-.977.575-1.974.793-2.964l1.049.232c-.225,1.02-.5,2.047-.818,3.054Z" transform="translate(2.996 1.163)" fill="#034c85"/>
  <path id="Path_29" data-name="Path 29" d="M39.577,76.655A37.077,37.077,0,1,1,74.843,28.106l-1.022.331a36,36,0,1,0-2.847,28.782l.936.528A37.168,37.168,0,0,1,39.577,76.655Z" transform="translate(-1.97 -1.958)" fill="#034c85"/>
  <path id="Path_30" data-name="Path 30" d="M71.584,37.556H70.509v-.344c0-.987-.043-1.984-.127-2.963l1.075-.092c.087,1.01.131,2.042.131,3.055Z" transform="translate(3.101 0.408)" fill="#034c85"/>
  <path id="Path_31" data-name="Path 31" d="M69.525,48.529a1.1,1.1,0,0,1-.322-.049,1.075,1.075,0,0,1-.7-1.349c.3-.967.566-1.943.782-2.918a1.075,1.075,0,1,1,2.1.464c-.229,1.035-.508,2.078-.831,3.1a1.075,1.075,0,0,1-1.026.751Z" transform="translate(2.957 1.096)" fill="#034c85"/>
  <path id="Path_32" data-name="Path 32" d="M39.614,77.23A37.615,37.615,0,1,1,75.392,27.977a1.075,1.075,0,1,1-2.042.664,35.465,35.465,0,1,0-2.8,28.351,1.075,1.075,0,1,1,1.872,1.055,37.7,37.7,0,0,1-32.8,19.182Z" transform="translate(-2.007 -1.995)" fill="#034c85"/>
  <path id="Path_33" data-name="Path 33" d="M71.084,38.7a1.075,1.075,0,0,1-1.075-1.075v-.344c0-.967-.042-1.953-.125-2.917a1.075,1.075,0,0,1,.978-1.163,1.062,1.062,0,0,1,1.163.978c.088,1.025.133,2.069.133,3.1v.344A1.075,1.075,0,0,1,71.084,38.7Z" transform="translate(3.064 0.336)" fill="#034c85"/>
  <path id="Path_34" data-name="Path 34" d="M39.017,68.034A29.017,29.017,0,1,1,68.034,39.017,29.017,29.017,0,0,1,39.017,68.034Zm0-55.885A26.868,26.868,0,1,0,65.885,39.017,26.868,26.868,0,0,0,39.017,12.149Z" transform="translate(-1.41 -1.397)" fill="#034c85"/>
  <path id="Path_35" data-name="Path 35" d="M37.693,48.23a1.075,1.075,0,0,1-1.075-1.075c0-4.729,2.532-7.048,5.843-9.6a7.86,7.86,0,0,0,2.881-7.9A7.781,7.781,0,0,0,39.389,23.7a7.9,7.9,0,0,0-6.629,1.569,7.8,7.8,0,0,0-2.893,6.076,1.075,1.075,0,0,1-2.149,0,9.979,9.979,0,1,1,16.055,7.91c-3.461,2.672-5,4.44-5,7.9A1.075,1.075,0,0,1,37.693,48.23Z" transform="translate(-0.086 -0.548)" fill="#034c85"/>
  <path id="Path_36" data-name="Path 36" d="M37.075,52.813A1.075,1.075,0,0,1,36,51.738v-.55a1.075,1.075,0,0,1,2.149,0v.55A1.075,1.075,0,0,1,37.075,52.813Z" transform="translate(0.533 1.6)" fill="#034c85"/>
</svg>
