<svg id="who_icn" xmlns="http://www.w3.org/2000/svg" width="75.222" height="74.282" viewBox="0 0 75.222 74.282">
  <path id="Path_22" data-name="Path 22" d="M39.611,76.282A37.378,37.378,0,0,1,2,39.141,37.378,37.378,0,0,1,39.611,2,37.378,37.378,0,0,1,77.222,39.141,37.421,37.421,0,0,1,39.611,76.282Zm0-72.159A35.242,35.242,0,0,0,4.149,39.141,35.242,35.242,0,0,0,39.611,74.159,35.242,35.242,0,0,0,75.073,39.141,35.283,35.283,0,0,0,39.611,4.122Z" transform="translate(-2 -2)" fill="#034c85"/>
  <path id="Path_23" data-name="Path 23" d="M22.305,16.144a1.073,1.073,0,0,1-1.022-.755,1.054,1.054,0,0,1,.43-1.187,30.169,30.169,0,0,1,2.853-1.65,1.081,1.081,0,0,1,1.446.462,1.055,1.055,0,0,1-.468,1.428A28.008,28.008,0,0,0,22.9,15.974a1.074,1.074,0,0,1-.59.17Z" transform="translate(-0.565 -1.362)" fill="#034c85"/>
  <path id="Path_24" data-name="Path 24" d="M39.056,67.931A29.46,29.46,0,0,1,9.44,38.686a28.447,28.447,0,0,1,1.075-7.767,1.076,1.076,0,0,1,1.324-.736,1.06,1.06,0,0,1,.745,1.308,26.738,26.738,0,0,0,3.827,22.521,27.668,27.668,0,0,0,35.1,8.837A26.979,26.979,0,0,0,64.946,29.637a27.514,27.514,0,0,0-31.6-17.48,1.075,1.075,0,0,1-1.275-.817,1.061,1.061,0,0,1,.827-1.259,29.816,29.816,0,0,1,29.493,10.6,28.946,28.946,0,0,1,3.28,30.824A29.651,29.651,0,0,1,39.056,67.931Z" transform="translate(-1.445 -1.545)" fill="#034c85"/>
  <path id="Path_25" data-name="Path 25" d="M15.054,23.445a1.077,1.077,0,0,1-.947-.561,1.05,1.05,0,0,1,.054-1.089A26.955,26.955,0,0,1,16.3,19.043a1.084,1.084,0,0,1,1.517-.1,1.052,1.052,0,0,1,.1,1.5,24.642,24.642,0,0,0-1.969,2.533,1.078,1.078,0,0,1-.9.472Z" transform="translate(-1.106 -0.98)" fill="#034c85"/>
  <path id="Path_26" data-name="Path 26" d="M62.242,53.776a1.078,1.078,0,0,1-.89-.464A27.343,27.343,0,0,0,46.991,42.765a11.393,11.393,0,0,1-16.568,0A27.343,27.343,0,0,0,16.062,53.312a1.084,1.084,0,0,1-1.494.28,1.053,1.053,0,0,1-.284-1.475,29.508,29.508,0,0,1,16.2-11.586,1.083,1.083,0,0,1,1.128.348,9.222,9.222,0,0,0,14.2,0,1.083,1.083,0,0,1,1.128-.348,29.508,29.508,0,0,1,16.2,11.586,1.053,1.053,0,0,1-.284,1.474,1.073,1.073,0,0,1-.605.185Z" transform="translate(-1.097 0.354)" fill="#034c85"/>
  <path id="Path_27" data-name="Path 27" d="M37.742,42.346c-5.921,0-10.689-7-10.689-12.79a10.69,10.69,0,0,1,21.378,0C48.431,35.348,43.663,42.346,37.742,42.346Zm0-21.223a8.5,8.5,0,0,0-8.54,8.433c0,4.8,3.941,10.668,8.54,10.668s8.54-5.865,8.54-10.668a8.5,8.5,0,0,0-8.54-8.433Z" transform="translate(-0.131 -0.96)" fill="#034c85"/>
</svg>
