<svg id="why_icn" xmlns="http://www.w3.org/2000/svg" width="80" height="80" viewBox="0 0 80 80">
  <path id="Path_21" data-name="Path 21" d="M69.634,19.348a2.836,2.836,0,0,0,2-.83l7.854-7.854A1.728,1.728,0,0,0,78.381,7.72L74.2,7.458,76.928,4.73a1.172,1.172,0,0,0-1.657-1.657L72.544,5.8l-.262-4.18A1.728,1.728,0,0,0,69.338.508L61.483,8.362a2.836,2.836,0,0,0-.825,2.182l.27,4.3A36.98,36.98,0,0,0,9.618,67.9a1.172,1.172,0,0,0,1.734-1.577A34.649,34.649,0,0,1,60.643,17.7L55.3,23.048a27.116,27.116,0,0,0-42.45,32.381h0a27.133,27.133,0,0,0,50.7-6.887,1.172,1.172,0,1,0-2.295-.476,24.789,24.789,0,0,1-46.321,6.288h0a24.466,24.466,0,0,1-2.743-11.328A24.764,24.764,0,0,1,53.639,24.7L48.34,30A17.313,17.313,0,1,0,50,31.662l5.3-5.3a24.683,24.683,0,0,1,6.468,16.52,1.172,1.172,0,0,0,1.172,1.165h.007a1.172,1.172,0,0,0,1.165-1.179A27.021,27.021,0,0,0,56.954,24.7L62.3,19.357a34.649,34.649,0,0,1-47.107,50.6,1.172,1.172,0,1,0-1.475,1.821A36.977,36.977,0,0,0,73.95,43.026,36.676,36.676,0,0,0,66.678,21q-.739-.995-1.536-1.931c4.594.289,4.346.277,4.492.277ZM51.923,43.026a14.966,14.966,0,1,1-5.245-11.361L41.346,37A7.461,7.461,0,1,0,43,38.656l5.333-5.333A14.883,14.883,0,0,1,51.923,43.026Zm-15.777.829a1.172,1.172,0,0,0,1.657,0l3.513-3.513a5.112,5.112,0,1,1-1.657-1.657L36.146,42.2a1.172,1.172,0,0,0,0,1.657ZM63,10.4a.491.491,0,0,1,.143-.378l6.887-6.887.306,4.877L63.29,15.054Zm1.95,6.313,7.044-7.044,4.877.306L69.982,16.86A.49.49,0,0,1,69.6,17Z" transform="translate(0 -0.002)" fill="#fff"/>
</svg>
